# xmcd
#
# Track frame offsets: 
#        150
#        15002
#        28127
#        41882
#        56524
#        68772
#        80533
#        93124
#        104594
#        117597
#        129742
#        143552
#        157088
#        169681
#        179860
#        192410
#        203112
#        215275
#        228357
#        242059
#        253768
#        266988
#        280913
#        293934
#        303404
#        312339
#        324613
#        337556
#        350462
#
# Disc length: 4795 seconds
#
# Revision: 0
# Processed by: cddbd v1.5.2PL0 Copyright (c) Steve Scherf et al.
# Submitted via: ExactAudioCopy v0.99pb5
#
DISCID=b512b91d
DTITLE=Little Walter And The Kings Of The Blues Harmonica - Blowing An
DTITLE=d Sucking - Blowing And Sucking
DYEAR=2008
DGENRE=Blues
TTITLE0=Mercy Babe
TTITLE1=Last Night
TTITLE2=You´d Better Watch Yourself
TTITLE3=Blue Light
TTITLE4=Last Night
TTITLE5=Mellow Down Easy
TTITLE6=Thunderbird
TTITLE7=My Babe
TTITLE8=Roller Coaster
TTITLE9=I Got To Go
TTITLE10=Little Girl
TTITLE11=Crazy For My Baby
TTITLE12=Can´t Stop Loving You
TTITLE13=I Hate To See You Go
TTITLE14=One More Change With You
TTITLE15=Who
TTITLE16=Boom Boom, Out Go The Lights
TTITLE17=It Ain´t Right
TTITLE18=Flying Saucer
TTITLE19=It´s Too Late Brother
TTITLE20=Teenage Beat
TTITLE21=Take Me Back
TTITLE22=Just A Feeling
TTITLE23=Nobody But You
TTITLE24=Temperatures
TTITLE25=Shake Dancer
TTITLE26=Everybody Needs Somebody
TTITLE27=Ah´w Baby
TTITLE28=I Had My Fun
EXTD=
EXTT0=
EXTT1=
EXTT2=
EXTT3=
EXTT4=
EXTT5=
EXTT6=
EXTT7=
EXTT8=
EXTT9=
EXTT10=
EXTT11=
EXTT12=
EXTT13=
EXTT14=
EXTT15=
EXTT16=
EXTT17=
EXTT18=
EXTT19=
EXTT20=
EXTT21=
EXTT22=
EXTT23=
EXTT24=
EXTT25=
EXTT26=
EXTT27=
EXTT28=
PLAYORDER=
